<svg width="20" height="20" viewBox="0 0 20 20" fill="none" xmlns="http://www.w3.org/2000/svg">
<path fill-rule="evenodd" clip-rule="evenodd" d="M3.71975 5.22008C4.01262 4.92729 4.48738 4.92729 4.78025 5.22008L7.28025 7.71935C7.57319 8.0122 7.57326 8.48707 7.28041 8.78001C6.98756 9.07294 6.51268 9.07301 6.21975 8.78016L5 7.56077L5 9.45049C5 10.3029 5.00058 10.8972 5.03838 11.3598C5.07547 11.8137 5.1446 12.0745 5.24524 12.272C5.46095 12.6953 5.80516 13.0395 6.22852 13.2553C6.42604 13.3559 6.6868 13.425 7.14068 13.4621C7.60331 13.4999 8.19755 13.5005 9.05 13.5005H10.25C10.6642 13.5005 11 13.8363 11 14.2505C11 14.6647 10.6642 15.0005 10.25 15.0005H9.01788C8.20505 15.0005 7.54944 15.0005 7.01853 14.9571C6.4719 14.9125 5.99175 14.8181 5.54754 14.5918C4.84193 14.2322 4.26825 13.6586 3.90873 12.953C3.68238 12.5087 3.58803 12.0286 3.54336 11.482C3.49999 10.951 3.49999 10.2954 3.5 9.4826L3.5 7.56077L2.28025 8.78016C1.98732 9.07301 1.51244 9.07294 1.21959 8.78001C0.926742 8.48707 0.926811 8.0122 1.21975 7.71935L3.71975 5.22008ZM12.8593 6.53887C12.3967 6.50107 11.8025 6.50049 10.95 6.50049L9.75 6.50049C9.33579 6.50049 9 6.1647 9 5.75049C9 5.33628 9.33579 5.00049 9.75 5.00049L10.9821 5.00049C11.7949 5.00048 12.4506 5.00048 12.9815 5.04385C13.5281 5.08851 14.0082 5.18287 14.4525 5.40921C15.1581 5.76874 15.7317 6.34242 16.0913 7.04802C16.3176 7.49224 16.412 7.97238 16.4566 8.51902C16.5 9.04994 16.5 9.70556 16.5 10.5184V12.4395L17.7196 11.2195C18.0124 10.9266 18.4873 10.9265 18.7803 11.2193C19.0732 11.5122 19.0733 11.9871 18.7804 12.28L16.2804 14.7807C16.1397 14.9214 15.949 15.0005 15.75 15.0005C15.551 15.0005 15.3603 14.9214 15.2196 14.7807L12.7196 12.28C12.4267 11.9871 12.4268 11.5122 12.7197 11.2193C13.0127 10.9265 13.4876 10.9266 13.7804 11.2195L15 12.4395V10.5505C15 9.69804 14.9994 9.1038 14.9616 8.64117C14.9245 8.18729 14.8554 7.92653 14.7548 7.72901C14.539 7.30565 14.1948 6.96144 13.7715 6.74572C13.574 6.64508 13.3132 6.57595 12.8593 6.53887Z" fill="white"/>
</svg>
